:FULLY-SPECIFIED
:FORCE-ALL-JOINTS-BE-3DOF
:DEGREES
849
root 3.42001 16.5733 27.4234 -8.89824 10.5091 356.825
lfemur -19.8429 3.90055 -11.9325
ltibia 28.7674 0 0
lfoot -5.53294 -13.2424 0
ltoes 22.355 0 0
rfemur -38.2546 1.47172 10.2932
rtibia 47.1376 0 0
rfoot -0.914106 -4.23053 0
rtoes -10.3056 0 0
lowerback 8.7435 1.27011 -1.10818
upperback 2.74447 1.32172 -0.693643
thorax -1.62197 0.671859 0.212374
lowerneck -6.10064 -2.73666 2.71418
upperneck 5.72795 -4.10668 2.56811
head 2.93779 -1.87418 0.175179
lclavicle 1.41756e-14 -1.31586e-14 0
lhumerus -41.9433 -16.491 83.7188
lradius 54.249 0 0
lwrist 21.2945 0 0
lhand 2.84118 4.72137 0
lfingers 7.12502 0 0
lthumb 28.2941 32.4581 0
rclavicle 1.41756e-14 -1.31586e-14 0
rhumerus -43.3141 14.5914 -70.7077
rradius 56.6937 0 0
rwrist -0.153425 0 0
rhand -11.1446 -27.205 0
rfingers 7.12502 0 0
rthumb 14.8794 -776.624 0
850
root 3.46408 16.5745 27.5611 -9.37575 11.08 356.987
lfemur -19.2949 4.05763 -12.4978
ltibia 29.1891 0 0
lfoot -5.46251 -14.2797 0
ltoes 22.4321 0 0
rfemur -39.865 1.29043 9.87253
rtibia 48.1632 0 0
rfoot -0.188385 -3.93062 0
rtoes -9.7026 0 0
lowerback 9.06193 1.06453 -1.35988
upperback 2.85611 1.03445 -0.720443
thorax -1.70256 0.528348 0.329591
lowerneck -6.12458 -2.78469 2.68855
upperneck 5.91327 -4.17832 2.61305
head 3.0053 -1.90488 0.189261
lclavicle 1.46534e-14 -1.36143e-14 0
lhumerus -41.5273 -16.872 83.4881
lradius 54.3348 0 0
lwrist 21.4112 0 0
lhand 3.16848 4.69233 0
lfingers 7.12502 0 0
lthumb 28.6075 32.3825 0
rclavicle 1.46534e-14 -1.36143e-14 0
rhumerus -43.8139 13.5046 -69.3872
rradius 56.3304 0 0
rwrist -0.0613978 0 0
rhand -11.3108 -27.3892 0
rfingers 7.12502 0 0
rthumb 14.7194 -776.821 0
851
root 3.50815 16.5756 27.6988 -9.85327 11.651 357.149
lfemur -18.7469 4.2147 -13.0631
ltibia 29.6107 0 0
lfoot -5.39209 -15.317 0
ltoes 22.5092 0 0
rfemur -41.4754 1.10915 9.45183
rtibia 49.1887 0 0
rfoot 0.537337 -3.63071 0
rtoes -9.09965 0 0
lowerback 9.38036 0.858947 -1.61158
upperback 2.96775 0.74719 -0.747242
thorax -1.78315 0.384836 0.446808
lowerneck -6.14852 -2.83271 2.66292
upperneck 6.0986 -4.24996 2.65798
head 3.07281 -1.93557 0.203344
lclavicle 1.51313e-14 -1.40701e-14 0
lhumerus -41.1114 -17.2529 83.2575
lradius 54.4205 0 0
lwrist 21.5279 0 0
lhand 3.49579 4.66328 0
lfingers 7.12502 0 0
lthumb 28.9208 32.3069 0
rclavicle 1.51313e-14 -1.40701e-14 0
rhumerus -44.3137 12.4177 -68.0667
rradius 55.9672 0 0
rwrist 0.0306295 0 0
rhand -11.477 -27.5734 0
rfingers 7.12502 0 0
rthumb 14.5594 -777.018 0
852
root 3.55222 16.5768 27.8366 -10.3308 12.2219 357.31
lfemur -18.1988 4.37178 -13.6284
ltibia 30.0324 0 0
lfoot -5.32166 -16.3543 0
ltoes 22.5863 0 0
rfemur -43.0858 0.927866 9.03114
rtibia 50.2142 0 0
rfoot 1.26306 -3.3308 0
rtoes -8.49669 0 0
lowerback 9.69879 0.653364 -1.86327
upperback 3.07938 0.459927 -0.774042
thorax -1.86374 0.241325 0.564024
lowerneck -6.17245 -2.88074 2.63728
upperneck 6.28392 -4.32159 2.70291
head 3.14032 -1.96627 0.217426
lclavicle 1.56092e-14 -1.45258e-14 0
lhumerus -40.6955 -17.6339 83.0268
lradius 54.5063 0 0
lwrist 21.6446 0 0
lhand 3.8231 4.63423 0
lfingers 7.12502 0 0
lthumb 29.2341 32.2313 0
rclavicle 1.56092e-14 -1.45258e-14 0
rhumerus -44.8135 11.3308 -66.7462
rradius 55.604 0 0
rwrist 0.122657 0 0
rhand -11.6432 -27.7577 0
rfingers 7.12502 0 0
rthumb 14.3993 -777.216 0
853
root 3.59629 16.578 27.9743 -10.8083 12.7929 357.472
lfemur -17.6508 4.52885 -14.1937
ltibia 30.454 0 0
lfoot -5.25123 -17.3916 0
ltoes 22.6634 0 0
rfemur -44.6962 0.746582 8.61045
rtibia 51.2397 0 0
rfoot 1.98878 -3.03089 0
rtoes -7.89374 0 0
lowerback 10.0172 0.447782 -2.11497
upperback 3.19102 0.172663 -0.800842
thorax -1.94433 0.0978132 0.681241
lowerneck -6.19639 -2.92876 2.61165
upperneck 6.46925 -4.39323 2.74784
head 3.20783 -1.99697 0.231509
lclavicle 1.60871e-14 -1.49816e-14 0
lhumerus -40.2796 -18.0148 82.7961
lradius 54.592 0 0
lwrist 21.7613 0 0
lhand 4.1504 4.60518 0
lfingers 7.12502 0 0
lthumb 29.5474 32.1557 0
rclavicle 1.60871e-14 -1.49816e-14 0
rhumerus -45.3133 10.244 -65.4257
rradius 55.2408 0 0
rwrist 0.214684 0 0
rhand -11.8094 -27.9419 0
rfingers 7.12502 0 0
rthumb 14.2393 -777.413 0
854
root 3.64037 16.5792 28.1121 -11.2858 13.3638 357.634
lfemur -17.1028 4.68592 -14.759
ltibia 30.8757 0 0
lfoot -5.1808 -18.4289 0
ltoes 22.7405 0 0
rfemur -46.3066 0.565298 8.18976
rtibia 52.2652 0 0
rfoot 2.7145 -2.73098 0
rtoes -7.29078 0 0
lowerback 10.3357 0.2422 -2.36667
upperback 3.30265 -0.114601 -0.827642
thorax -2.02492 -0.0456983 0.798457
lowerneck -6.22033 -2.97678 2.58602
upperneck 6.65457 -4.46487 2.79277
head 3.27535 -2.02766 0.245591
lclavicle 1.65649e-14 -1.54373e-14 0
lhumerus -39.8637 -18.3958 82.5655
lradius 54.6778 0 0
lwrist 21.878 0 0
lhand 4.47771 4.57613 0
lfingers 7.12502 0 0
lthumb 29.8607 32.0801 0
rclavicle 1.65649e-14 -1.54373e-14 0
rhumerus -45.8131 9.15713 -64.1052
rradius 54.8776 0 0
rwrist 0.306711 0 0
rhand -11.9756 -28.1261 0
rfingers 7.12502 0 0
rthumb 14.0793 -777.61 0
